<?xml version="1.0" standalone="no"?>
<!DOCTYPE svg PUBLIC "-//W3C//DTD SVG 20010904//EN"
 "http://www.w3.org/TR/2001/REC-SVG-20010904/DTD/svg10.dtd">
<svg version="1.0" xmlns="http://www.w3.org/2000/svg"
 width="532.000000pt" height="532.000000pt" viewBox="0 0 532.000000 532.000000"
 preserveAspectRatio="xMidYMid meet">
<metadata>
Created by potrace 1.14, written by Peter Selinger 2001-2017
</metadata>
<g transform="translate(0.000000,532.000000) scale(0.100000,-0.100000)"
fill="#000000" stroke="none">
<path d="M2150 5241 c0 -3 -30 -6 -68 -7 -67 -1 -239 -11 -322 -20 -25 -2 -72
-6 -105 -9 -33 -2 -60 -5 -60 -5 0 -1 -18 -3 -40 -4 -47 -3 -201 -21 -275 -32
-19 -2 -60 -7 -90 -10 -30 -3 -62 -10 -71 -14 -9 -5 -19 -7 -21 -4 -3 2 -29
-42 -58 -98 -29 -57 -56 -105 -60 -108 -4 -3 -13 -16 -20 -29 -16 -32 -71
-105 -125 -166 -58 -67 -171 -185 -177 -185 -2 0 -27 -21 -54 -46 -27 -25 -77
-64 -111 -87 -35 -23 -63 -45 -63 -49 0 -4 -7 -8 -15 -8 -17 0 -16 2 -20 -125
-24 -708 -21 -1257 8 -1535 3 -25 8 -81 12 -125 4 -44 9 -83 11 -87 3 -4 7
-31 9 -60 3 -29 7 -64 10 -78 3 -14 8 -38 10 -55 18 -103 32 -170 41 -198 4
-12 9 -29 10 -37 4 -25 13 -60 30 -119 9 -31 17 -60 19 -66 1 -5 7 -23 13 -38
7 -16 12 -33 12 -39 0 -5 6 -24 14 -41 17 -39 28 -69 31 -82 2 -6 13 -33 26
-60 13 -28 23 -52 24 -55 2 -10 79 -165 84 -170 3 -3 17 -25 30 -50 42 -79
149 -234 194 -282 9 -10 15 -18 12 -18 -12 0 245 -263 304 -310 23 -19 55 -45
69 -58 15 -13 47 -37 72 -55 25 -17 46 -34 48 -39 2 -4 9 -8 16 -8 7 0 21 -9
31 -20 10 -11 22 -20 27 -20 5 0 36 -18 68 -40 32 -22 64 -40 69 -40 6 0 11
-3 11 -7 0 -5 10 -13 23 -19 12 -6 92 -47 177 -91 254 -130 637 -283 712 -283
71 0 538 188 823 332 66 33 128 67 138 76 10 9 24 17 31 18 24 3 286 174 286
186 0 4 5 8 11 8 7 0 31 15 54 34 23 19 63 51 89 70 86 66 262 247 351 361 53
68 143 202 150 224 3 11 10 21 15 21 5 0 12 10 16 23 3 12 12 29 19 37 37 46
204 474 190 488 -3 3 -1 10 4 16 11 15 39 125 45 181 1 12 5 25 8 30 5 9 15
66 24 135 2 14 6 36 9 50 3 14 8 43 10 65 2 22 6 58 9 80 32 248 41 528 41
1243 l0 624 -25 19 c-14 10 -30 23 -37 29 -7 5 -15 10 -18 10 -9 0 -84 53
-115 80 -14 12 -36 29 -49 38 -34 23 -84 67 -170 150 -41 39 -79 72 -83 72 -4
0 -8 5 -8 10 0 6 -8 18 -17 28 -30 30 -118 133 -126 148 -4 7 -21 28 -37 46
-17 18 -30 37 -30 43 0 6 -9 17 -20 25 -11 8 -20 19 -20 25 0 19 -49 63 -77
69 -15 3 -50 8 -78 11 -27 4 -62 8 -76 10 -15 2 -55 7 -90 10 -35 3 -71 8 -79
10 -8 3 -58 7 -110 10 -52 3 -105 7 -117 9 -12 3 -64 7 -116 11 -52 3 -116 8
-143 11 -27 3 -102 6 -166 8 -64 2 -120 6 -125 9 -12 7 -863 5 -863 -2z"/>
</g>
</svg>
